<?xml version="1.0" encoding="UTF-8" standalone="no"?>
<svg
   xmlns:dc="http://purl.org/dc/elements/1.1/"
   xmlns:cc="http://creativecommons.org/ns#"
   xmlns:rdf="http://www.w3.org/1999/02/22-rdf-syntax-ns#"
   xmlns:svg="http://www.w3.org/2000/svg"
   xmlns="http://www.w3.org/2000/svg"
   xmlns:xlink="http://www.w3.org/1999/xlink"
   xmlns:sodipodi="http://sodipodi.sourceforge.net/DTD/sodipodi-0.dtd"
   xmlns:inkscape="http://www.inkscape.org/namespaces/inkscape"
   width="375"
   height="375"
   viewBox="0 0 375 375"
   id="svg2"
   sodipodi:version="0.32"
   inkscape:version="0.46"
   sodipodi:docname="Poinsot_half_spirals.svg"
   inkscape:output_extension="org.inkscape.output.svg.inkscape"
   version="1.0">
  <metadata
     id="metadata37">
    <rdf:RDF>
      <cc:Work
         rdf:about="">
        <dc:format>image/svg+xml</dc:format>
        <dc:type
           rdf:resource="http://purl.org/dc/dcmitype/StillImage" />
      </cc:Work>
    </rdf:RDF>
  </metadata>
  <sodipodi:namedview
     inkscape:window-height="737"
     inkscape:window-width="1021"
     inkscape:pageshadow="2"
     inkscape:pageopacity="0.0"
     guidetolerance="10.0"
     gridtolerance="10.0"
     objecttolerance="10.0"
     borderopacity="1.0"
     bordercolor="#666666"
     pagecolor="#ffffff"
     id="base"
     showgrid="false"
     inkscape:zoom="1.0266667"
     inkscape:cx="7.421783"
     inkscape:cy="229.33367"
     inkscape:window-x="140"
     inkscape:window-y="1"
     inkscape:current-layer="svg2" />
  <desc
     id="desc4">Produced by GNUPLOT 4.0 patchlevel 0 </desc>
  <defs
     id="defs6">
    <inkscape:perspective
       sodipodi:type="inkscape:persp3d"
       inkscape:vp_x="0 : 225 : 1"
       inkscape:vp_y="0 : 1000 : 0"
       inkscape:vp_z="500 : 225 : 1"
       inkscape:persp3d-origin="250 : 150 : 1"
       id="perspective39" />
    <circle
       id="gpDot"
       r="1"
       cx="0"
       cy="0"
       sodipodi:cx="0"
       sodipodi:cy="0"
       sodipodi:rx="1"
       sodipodi:ry="1" />
    <path
       id="gpPt0"
       style="stroke-width:0.074"
       d="M -1,0 L 1,0 M 0,-1 L 0,1" />
    <path
       id="gpPt1"
       style="stroke-width:0.074"
       d="M -1,-1 L 1,1 M 1,-1 L -1,1" />
    <path
       id="gpPt2"
       style="stroke-width:0.074"
       d="M -1,0 L 1,0 M 0,-1 L 0,1 M -1,-1 L 1,1 M -1,1 L 1,-1" />
    <rect
       id="gpPt3"
       style="stroke-width:0.074"
       x="-1"
       y="-1"
       width="2"
       height="2" />
    <use
       xlink:href="#gpPt3"
       id="gpPt4"
       style="stroke:none"
       x="0"
       y="0"
       width="500"
       height="450" />
    <circle
       id="gpPt5"
       style="stroke-width:0.074"
       cx="0"
       cy="0"
       r="1"
       sodipodi:cx="0"
       sodipodi:cy="0"
       sodipodi:rx="1"
       sodipodi:ry="1" />
    <use
       xlink:href="#gpPt5"
       id="gpPt6"
       style="stroke:none"
       x="0"
       y="0"
       width="500"
       height="450" />
    <path
       id="gpPt7"
       style="stroke-width:0.074"
       d="M 0,-1.33 L -1.33,0.67 L 1.33,0.67 L 0,-1.33 z" />
    <use
       xlink:href="#gpPt7"
       id="gpPt8"
       style="stroke:none"
       x="0"
       y="0"
       width="500"
       height="450" />
    <use
       xlink:href="#gpPt7"
       id="gpPt9"
       transform="scale(-1,-1)"
       x="0"
       y="0"
       width="500"
       height="450" />
    <use
       xlink:href="#gpPt9"
       id="gpPt10"
       style="stroke:none"
       x="0"
       y="0"
       width="500"
       height="450" />
    <use
       xlink:href="#gpPt3"
       id="gpPt11"
       transform="matrix(0.7071068,0.7071068,-0.7071068,0.7071068,0,0)"
       x="0"
       y="0"
       width="500"
       height="450" />
    <use
       xlink:href="#gpPt11"
       id="gpPt12"
       style="stroke:none"
       x="0"
       y="0"
       width="500"
       height="450" />
  </defs>
  <g
     style="fill:none;stroke:#000000;stroke-width:1;stroke-opacity:1"
     id="g22" />
  <g
     style="fill:none;stroke:#0000ff;stroke-width:3;stroke-linecap:round;stroke-linejoin:round;stroke-miterlimit:4;stroke-dasharray:none;stroke-opacity:1"
     id="g32"
     transform="translate(-63.311686,-38.961038)">
    <path
       d="M 423,248 L 423,246 L 423,244 L 423,242 L 423,240 L 423,238 L 423,236 L 423,234 L 422,232 L 422,230 L 422,228 L 422,226 L 422,224 L 421,222 L 421,220 L 421,218 L 421,216 L 420,214 L 420,212 L 420,210 L 419,208 L 419,206 L 418,204 L 418,202 L 418,200 L 417,198 L 417,196 L 416,194 L 416,193 L 415,191 L 415,189 L 414,187 L 413,185 L 413,183 L 412,181 L 412,179 L 411,177 L 410,176 L 410,174 L 409,172 L 408,170 L 407,168 L 407,166 L 406,165 L 405,163 L 404,161 L 403,159 L 403,157 L 402,156 L 401,154 L 400,152 L 399,150 L 398,149 L 397,147 L 396,145 L 395,144 L 394,142 L 393,140 L 392,139 L 391,137 L 390,135 L 389,134 L 388,132 L 387,130 L 386,129 L 385,127 L 383,126 L 382,124 L 381,123 L 380,121 L 379,120 L 378,118 L 376,117 L 375,115 L 374,114 L 373,112 L 371,111 L 370,110 L 369,108 L 367,107 L 366,105 L 365,104 L 363,103 L 362,101 L 361,100 L 359,99 L 358,98 L 356,96 L 355,95 L 354,94 L 352,93 L 351,91 L 349,90 L 348,89 L 346,88 L 345,87 L 343,86 L 342,85 L 340,84 L 339,83 L 337,82 L 335,81 L 334,80 L 332,79 L 331,78 L 329,77 L 328,76 L 326,75 L 324,74 L 323,73 L 321,72 L 319,71 L 318,71 L 316,70 L 314,69 L 313,68 L 311,68 L 309,67 L 308,66 L 306,65 L 304,65 L 303,64 L 301,64 L 299,63 L 297,62 L 296,62 L 294,61 L 292,61 L 291,60 L 289,60 L 287,59 L 285,59 L 284,58 L 282,58 L 280,58 L 278,57 L 276,57 L 275,57 L 273,56 L 271,56 L 269,56 L 268,55 L 266,55 L 264,55 L 262,55 L 260,55 L 259,54 L 257,54 L 255,54 L 253,54 L 252,54 L 250,54 L 248,54 L 246,54 L 244,54 L 243,54 L 241,54 L 239,54 L 237,54 L 236,54 L 234,54 L 232,55 L 230,55 L 228,55 L 227,55 L 225,55 L 223,56 L 221,56 L 220,56 L 218,57 L 216,57 L 214,57 L 213,58 L 211,58 L 209,58 L 207,59 L 206,59 L 204,60 L 202,60 L 201,61 L 199,61 L 197,62 L 196,62 L 194,63 L 192,63 L 191,64 L 189,65 L 187,65 L 186,66 L 184,67 L 182,67 L 181,68 L 179,69 L 177,70 L 176,70 L 174,71 L 173,72 L 171,73 L 170,74 L 168,74 L 166,75 L 165,76 L 163,77 L 162,78 L 160,79 L 159,80 L 157,81 L 156,82 L 154,83 L 153,84 L 151,85 L 150,86 L 149,87 L 147,88 L 146,89 L 144,90 L 143,92 L 142,93 L 140,94 L 139,95 L 138,96 L 136,97 L 135,99 L 134,100 L 132,101 L 131,102 L 130,104 L 128,105 L 127,106 L 126,107 L 125,109 L 124,110 L 122,111 L 121,113 L 120,114 L 119,116 L 118,117 L 117,118 L 116,120 L 114,121 L 113,123 L 112,124 L 111,126 L 110,127 L 109,129 L 108,130 L 107,132 L 106,133 L 105,135 L 104,136 L 103,138 L 102,139 L 102,141 L 101,142 L 100,144 L 99,146 L 98,147 L 97,149 L 97,150 L 96,152 L 95,154 L 94,155 L 93,157 L 93,158 L 92,160 L 91,162 L 91,163 L 90,165 L 89,167 L 89,169 L 88,170 L 87,172 L 87,174 L 86,175 L 86,177 L 85,179 L 85,180 L 84,182 L 84,184 L 83,186 L 83,187 L 82,189 L 82,191 L 82,193 L 81,194 L 81,196 L 80,198 L 80,200 L 80,201 L 80,203 L 79,205 L 79,207 L 79,209 L 78,210 L 78,212 L 78,214 L 78,216 L 78,217 L 78,219 L 77,221 L 77,223 L 77,225 L 77,226 L 77,228 L 77,230 L 77,232 L 77,233 L 77,235 L 77,237 L 77,239 L 77,241 L 77,242 L 77,244 L 77,246 L 77,248 L 78,249 L 78,251 L 78,253 L 78,255 L 78,256 L 79,258 L 79,260 L 79,262 L 79,263 L 80,265 L 80,267 L 80,268 L 81,270 L 81,272 L 81,274 L 82,275 L 82,277 L 82,279 L 83,280 L 83,282 L 84,284 L 84,285 L 85,287 L 85,289 L 86,290 L 86,292 L 87,293 L 87,295 L 88,297 L 88,298 L 89,300 L 90,301 L 90,303 L 91,305 L 92,306 L 92,308 L 93,309 L 94,311 L 94,312 L 95,314 L 96,315 L 97,317 L 97,318 L 98,320 L 99,321 L 100,323 L 101,324 L 101,326 L 102,327 L 103,328 L 104,330 L 105,331 L 106,333 L 107,334 L 108,335 L 108,337 L 109,338 L 110,339 L 111,341 L 112,342 L 113,343 L 114,344 L 115,346 L 116,347 L 117,348 L 118,349 L 119,351 L 120,352 L 122,353 L 123,354 L 124,355 L 125,356 L 126,358 L 127,359 L 128,360 L 129,361 L 130,362 L 132,363 L 133,364 L 134,365 L 135,366 L 136,367 L 138,368 L 139,369 L 140,370 L 141,371 L 142,372 L 144,373 L 145,374 L 146,375 L 147,376 L 149,376 L 150,377 L 151,378 L 152,379 L 154,380 L 155,381 L 156,381 L 158,382 L 159,383 L 160,384 L 162,384 L 163,385 L 164,386 L 166,386 L 167,387 L 168,388 L 170,388 L 171,389 L 172,389 L 174,390 L 175,391 L 177,391 L 178,392 L 179,392 L 181,393 L 182,393 L 184,394 L 185,394 L 186,394 L 188,395 L 189,395 L 191,396 L 192,396 L 193,396 L 195,397 L 196,397 L 198,397 L 199,398 L 200,398 L 202,398 L 203,398 L 205,399 L 206,399 L 208,399 L 209,399 L 210,399 L 212,399 L 213,400 L 215,400 L 216,400 L 217,400 L 219,400 L 220,400 L 222,400 L 223,400 L 225,400 L 226,400 L 227,400 L 229,400 L 230,400 L 232,400 L 233,400 L 234,400 L 236,399 L 237,399 L 239,399 L 240,399 L 241,399 L 243,399 L 244,398 L 246,398 L 247,398 L 248,398 L 250,397 L 251,397 L 252,397 L 254,396 L 255,396 L 256,396 L 258,395 L 259,395 L 260,395 L 262,394 L 263,394 L 264,393 L 266,393 L 267,392 L 268,392 L 270,392 L 271,391 L 272,391 L 273,390 L 275,389 L 276,389 L 277,388 L 278,388 L 280,387 L 281,387 L 282,386 L 283,385 L 284,385 L 286,384 L 287,383 L 288,383 L 289,382 L 290,381 L 292,380 L 293,380 L 294,379 L 295,378 L 296,378 L 297,377 L 298,376 L 299,375 L 301,374 L 302,373 L 303,373 L 304,372 L 305,371 L 306,370 L 307,369 L 308,368 L 309,367 L 310,367 L 311,366 L 312,365 L 313,364 L 314,363 L 315,362 L 316,361 L 317,360 L 318,359 L 319,358 L 320,357 L 320,356 L 321,355 L 322,354 L 323,353 L 324,352 L 325,351 L 326,350 L 326,349 L 327,347 L 328,346 L 329,345 L 330,344 L 330,343 L 331,342 L 332,341 L 333,340 L 333,339 L 334,337 L 335,336 L 335,335 L 336,334 L 337,333 L 337,332 L 338,330 L 339,329 L 339,328 L 340,327 L 341,326 L 341,325 L 342,323 L 342,322 L 343,321 L 343,320 L 344,318 L 344,317 L 345,316 L 345,315 L 346,313 L 346,312 L 347,311 L 347,310 L 348,308 L 348,307 L 348,306 L 349,305 L 349,303 L 350,302 L 350,301 L 350,300 L 351,298 L 351,297 L 351,296 L 352,294 L 352,293 L 352,292 L 352,291 L 353,289 L 353,288 L 353,287 L 353,285 L 353,284 L 354,283 L 354,282 L 354,280 L 354,279 L 354,278 L 354,276 L 354,275 L 355,274 L 355,272 L 355,271 L 355,270 L 355,269 L 355,267 L 355,266 L 355,265 L 355,263 L 355,262 L 355,261 L 355,260 L 355,258 L 355,257 L 355,256 L 355,255 L 354,253 L 354,252 L 354,251 L 354,250 L 354,248 L 354,247 L 354,246 L 354,245 L 353,243 L 353,242 L 353,241 L 353,240 L 352,238 L 352,237 L 352,236 L 352,235 L 351,233 L 351,232 L 351,231 L 351,230 L 350,229 L 350,228 L 350,226 L 349,225 L 349,224 L 348,223 L 348,222 L 348,221 L 347,219 L 347,218 L 346,217 L 346,216 L 346,215 L 345,214 L 345,213 L 344,212 L 344,210 L 343,209 L 343,208 L 342,207 L 342,206 L 341,205 L 341,204 L 340,203 L 340,202 L 339,201 L 338,200 L 338,199 L 337,198 L 337,197 L 336,196 L 335,195 L 335,194 L 334,193 L 334,192 L 333,191 L 332,190 L 332,189 L 331,188 L 330,187 L 330,186 L 329,186 L 328,185 L 328,184 L 327,183 L 326,182 L 325,181 L 325,180 L 324,179 L 323,179 L 322,178 L 322,177 L 321,176 L 320,175 L 319,175 L 319,174 L 318,173 L 317,172 L 316,172 L 315,171 L 314,170 L 314,169 L 313,169 L 312,168 L 311,167 L 310,167 L 309,166 L 309,165 L 308,165 L 307,164 L 306,164 L 305,163 L 304,162 L 303,162 L 303,161 L 302,161 L 301,160 L 300,159 L 299,159 L 298,158 L 297,158 L 296,157 L 295,157 L 294,156 L 293,156 L 292,155 L 291,155 L 290,154 L 289,154 L 288,153 L 287,153 L 286,153 L 285,152 L 284,152 L 283,151 L 282,151 L 281,151 L 280,150 L 279,150 L 278,150 L 277,149 L 276,149 L 275,149 L 274,149 L 273,148 L 272,148 L 271,148 L 270,148 L 269,148 L 268,147 L 267,147 L 266,147 L 265,147 L 264,147 L 263,147 L 262,146 L 261,146 L 260,146 L 259,146 L 258,146 L 257,146 L 256,146 L 255,146 L 254,146 L 253,146 L 252,146 L 251,146 L 250,146 L 249,146 L 248,146 L 247,146 L 246,146 L 245,146 L 244,146 L 243,146 L 242,147 L 241,147 L 240,147 L 239,147 L 238,147 L 237,147 L 236,148 L 235,148 L 234,148 L 233,148 L 232,148 L 231,149 L 230,149 L 229,149 L 228,149 L 227,150 L 226,150 L 225,150 L 224,151 L 223,151 L 222,151 L 221,152 L 220,152 L 219,153 L 218,153 L 217,153 L 216,154 L 215,154 L 215,155 L 214,155 L 213,155 L 212,156 L 211,156 L 211,157 L 210,157 L 209,158 L 208,158 L 207,159 L 206,160 L 205,160 L 204,160 L 204,161 L 203,162 L 202,162 L 201,163 L 200,164 L 199,164 L 199,165 L 198,165 L 197,166 L 196,167 L 195,168 L 194,168 L 194,169 L 193,169 L 193,170 L 192,171 L 191,171 L 191,172 L 190,173 L 189,173 L 189,174 L 188,175 L 187,176 L 186,177 L 185,178 L 185,179 L 184,179 L 184,180 L 183,181 L 182,182 L 182,183 L 181,184 L 180,185 L 180,186 L 179,187 L 178,188 L 178,189 L 177,190 L 176,191 L 176,192 L 175,193 L 175,194 L 174,195 L 174,196 L 174,197 L 173,197 L 173,198 L 172,199 L 172,200 L 171,201 L 171,202 L 171,203 L 170,204 L 170,205 L 170,206 L 169,207 L 169,208 L 169,209 L 168,210 L 168,211 L 168,212 L 168,213 L 167,214 L 167,215 L 167,216 L 167,217 L 166,218 L 166,219 L 166,220 L 166,221 L 166,222 L 166,223 L 166,224 L 165,224 L 165,225 L 165,226 L 165,227 L 165,228 L 165,229 L 165,230 L 165,231 L 165,232 L 165,233 L 165,234 L 165,235 L 165,236 L 165,237 L 165,238 L 165,239 L 165,240 L 165,241 L 165,242 L 165,243 L 165,244 L 165,245 L 165,246 L 165,247 L 166,247 L 166,248 L 166,249 L 166,250 L 166,251 L 166,252 L 166,253 L 167,254 L 167,255 L 167,256 L 167,257 L 168,258 L 168,259 L 168,260 L 168,261 L 169,261 L 169,262 L 169,263 L 169,264 L 170,264 L 170,265 L 170,266 L 170,267 L 171,267 L 171,268 L 171,269 L 172,269 L 172,270 L 172,271 L 173,272 L 173,273 L 174,274 L 174,275 L 175,275 L 175,276 L 175,277 L 176,277 L 176,278 L 176,279 L 177,279 L 177,280 L 178,281 L 178,282 L 179,282 L 179,283 L 180,284 L 180,285 L 181,285 L 181,286 L 182,286 L 182,287 L 183,288 L 184,289 L 184,290 L 185,290 L 185,291 L 186,291 L 186,292 L 187,292 L 187,293 L 188,293 L 188,294 L 189,294 L 189,295 L 190,295 L 190,296 L 191,296 L 191,297 L 192,297 L 193,298 L 194,298 L 194,299 L 195,299 L 196,300 L 197,301 L 198,301 L 198,302 L 199,302 L 200,302 L 200,303 L 201,303 L 202,304 L 203,304 L 204,305 L 205,305 L 205,306 L 206,306 L 207,306 L 208,307 L 209,307 L 210,308 L 211,308 L 212,308 L 213,309 L 214,309 L 215,309 L 216,309 L 217,310 L 218,310 L 219,310 L 220,310 L 221,310 L 221,311 L 222,311 L 223,311 L 224,311 L 225,311 L 226,311 L 227,311 L 228,311 L 229,311 L 230,311 L 231,311 L 232,311 L 233,311 L 234,311 L 235,311 L 236,311 L 237,311 L 238,311 L 239,310 L 240,310 L 241,310 L 242,310 L 243,310 L 243,309 L 244,309 L 245,309 L 246,309 L 246,308 L 247,308 L 248,308 L 249,308 L 250,307 L 251,307 L 252,306 L 253,306 L 254,305 L 255,305 L 256,304 L 257,304 L 258,303 L 259,303 L 259,302 L 260,302 L 261,301 L 262,300 L 263,300 L 263,299 L 264,299 L 265,298 L 266,297 L 267,297 L 267,296 L 268,295 L 269,295 L 269,294 L 270,293 L 271,292 L 271,291 L 272,291 L 272,290 L 273,290 L 273,289 L 274,288 L 274,287 L 275,287 L 275,286 L 276,286 L 276,285 L 276,284 L 277,284 L 277,283 L 278,282 L 278,281 L 278,280 L 279,280 L 279,279 L 279,278 L 280,278 L 280,277 L 280,276 L 281,275 L 281,274 L 281,273 L 282,272 L 282,271 L 282,270 L 282,269 L 283,269 L 283,268 L 283,267 L 283,266 L 283,265 L 284,264 L 284,263 L 284,262 L 284,261 L 284,260 L 284,259 L 284,258 L 284,257 L 284,256 L 284,255 L 284,254 L 284,253 L 284,252 L 284,251 L 284,250 L 284,249 L 284,248 L 283,247 L 283,246 L 283,245 L 283,244 L 283,243 L 282,242 L 282,241 L 282,240 L 282,239 L 281,239 L 281,238 L 281,237 L 280,236 L 280,235 L 280,234 L 279,234 L 279,233 L 279,232 L 278,232 L 278,231 L 278,230 L 277,230 L 277,229 L 276,228 L 276,227 L 275,227 L 275,226 L 274,226 L 274,225 L 274,224 L 273,224 L 273,223 L 272,223 L 272,222 L 271,222 L 271,221 L 270,221 L 270,220 L 269,220 L 269,219 L 268,219 L 268,218 L 267,218 L 266,217 L 265,217 L 265,216 L 264,216 L 263,215 L 262,215 L 262,214 L 261,214 L 260,214 L 260,213 L 259,213 L 258,213 L 258,212 L 257,212 L 256,212 L 255,211 L 254,211 L 253,211 L 252,211 L 252,210 L 251,210 L 250,210 L 249,210 L 248,210 L 247,210 L 246,210 L 245,210 L 244,210 L 243,210 L 242,210 L 241,210 L 240,210 L 239,210 L 238,210 L 237,211 L 236,211 L 235,211 L 234,211 L 234,212 L 233,212 L 232,212 L 231,213 L 230,213 L 229,214 L 228,214 L 228,215 L 227,215 L 226,215 L 226,216 L 225,216 L 225,217 L 224,217 L 223,218 L 222,219 L 221,220 L 220,220 L 220,221 L 219,222 L 219,223 L 218,223 L 218,224 L 217,224 L 217,225 L 217,226 L 216,226 L 216,227 L 216,228 L 215,228 L 215,229 L 215,230 L 214,230 L 214,231 L 214,232 L 213,233 L 213,234 L 213,235 L 213,236 L 212,237 L 212,238 L 212,239 L 212,240 L 212,241 L 212,242 L 212,243 L 212,244 L 212,245 L 212,246 L 212,247 L 212,248 L 212,249 L 213,250 L 213,251 L 213,252 L 213,253 L 214,253 L 214,254 L 214,255 L 214,256 L 215,256 L 215,257 L 215,258 L 216,258 L 216,259 L 217,260 L 217,261 L 218,261 L 218,262 L 219,262 L 219,263 L 220,263 L 220,264 L 221,264 L 221,265 L 222,265 L 222,266 L 223,266 L 223,267 L 224,267 L 225,268 L 226,268 L 227,269 L 228,269 L 229,269 L 229,270 L 230,270 L 231,270 L 232,270 L 233,270 L 234,271 L 235,271 L 236,271 L 237,271 L 238,270 L 239,270 L 240,270 L 241,270 L 242,270 L 242,269 L 243,269 L 244,269 L 244,268 L 245,268 L 246,268 L 246,267 L 247,267 L 247,266 L 248,266 L 249,265 L 250,264 L 251,263 L 251,262 L 252,262 L 252,261 L 253,260 L 253,259 L 253,258 L 254,258 L 254,257 L 254,256 L 254,255 L 255,255 L 255,254 L 255,253 L 255,252 L 255,251 L 255,250 L 255,249 L 255,248 L 255,247 L 255,246 L 254,246 L 254,245 L 254,244 L 254,243 L 253,243 L 253,242 L 253,241 L 252,241 L 252,240 L 251,240 L 251,239 L 250,239 L 250,238 L 249,238 L 249,237 L 248,237 L 248,236 L 247,236 L 246,236 L 246,235 L 245,235 L 244,235 L 243,235 L 243,234 L 242,234 L 241,234 L 240,234 L 239,234 L 239,235 L 238,235 L 237,235 L 236,235 L 236,236 L 235,236 L 234,236 L 234,237 L 233,237 L 233,238 L 232,238 L 232,239 L 231,239 L 231,240 L 231,241 L 230,241 L 230,242 L 230,243 L 230,244 L 229,245 L 229,246 L 229,247 L 229,248 L 230,248 L 230,249 L 230,250 L 230,251 L 231,251 L 231,252 L 231,253 L 232,253 L 232,254 L 233,254 L 234,255 L 235,255 L 236,256 L 237,256 L 238,256 L 239,256 L 240,256 L 240,255 L 241,255 L 242,255 L 242,254 L 243,254 L 243,253 L 244,253 L 244,252 L 244,251 L 244,250 L 245,250 L 245,249 L 245,248 L 244,248 L 244,247 L 244,246 L 244,245 L 243,245 L 243,244 L 242,244 L 241,244 L 241,243 L 240,243 L 239,243 L 238,243 L 238,244 L 237,244 L 237,245 L 236,245 L 236,246 L 236,247 L 236,248 L 236,249 L 236,250 L 237,250 L 238,250 L 238,251 L 239,251 L 239,250 L 240,250 L 241,250 L 241,249 L 241,248 L 241,247 L 240,247 L 240,246 L 239,246 L 238,246 L 238,247 L 238,248 L 238,249 L 239,249 L 239,248 L 240,248 L 239,248 L 239,247 L 239,248"
       id="path34"
       style="stroke:#0000ff;stroke-width:23;stroke-linecap:round;stroke-linejoin:round;stroke-miterlimit:4;stroke-dasharray:none;stroke-opacity:1" />
  </g>
  <g
     style="fill:none;stroke:#00ffff;stroke-width:3;stroke-linecap:round;stroke-linejoin:round;stroke-miterlimit:4;stroke-dasharray:none;stroke-opacity:1"
     id="g28"
     transform="translate(-63.311686,-38.961038)">
    <path
       d="M 423,248 L 423,246 L 423,244 L 423,242 L 423,240 L 423,238 L 423,236 L 422,234 L 422,232 L 422,230 L 422,228 L 422,226 L 422,224 L 421,222 L 421,220 L 421,218 L 420,216 L 420,214 L 420,212 L 419,210 L 419,208 L 419,206 L 418,204 L 418,202 L 417,200 L 417,198 L 416,197 L 416,195 L 415,193 L 414,191 L 414,189 L 413,187 L 413,185 L 412,183 L 411,181 L 411,180 L 410,178 L 409,176 L 409,174 L 408,172 L 407,171 L 406,169 L 405,167 L 405,165 L 404,163 L 403,162 L 402,160 L 401,158 L 400,157 L 399,155 L 398,153 L 397,151 L 396,150 L 395,148 L 394,146 L 393,145 L 392,143 L 391,142 L 390,140 L 389,139 L 388,137 L 387,135 L 386,134 L 384,132 L 383,131 L 382,129 L 381,128 L 380,126 L 378,125 L 377,124 L 376,122 L 375,121 L 373,119 L 372,118 L 371,117 L 370,115 L 368,114 L 367,113 L 365,112 L 364,110 L 363,109 L 361,108 L 360,107 L 359,105 L 357,104 L 356,103 L 354,102 L 353,101 L 351,100 L 350,99 L 348,98 L 347,97 L 345,96 L 344,95 L 342,94 L 341,93 L 339,92 L 338,91 L 336,90 L 335,89 L 333,88 L 332,87 L 330,87 L 328,86 L 327,85 L 325,84 L 324,83 L 322,83 L 320,82 L 319,81 L 317,81 L 315,80 L 314,79 L 312,79 L 311,78 L 309,78 L 307,77 L 306,77 L 304,76 L 302,76 L 301,75 L 299,75 L 297,74 L 296,74 L 294,73 L 292,73 L 291,73 L 289,72 L 287,72 L 286,72 L 284,72 L 282,71 L 281,71 L 279,71 L 277,71 L 275,71 L 274,70 L 272,70 L 270,70 L 269,70 L 267,70 L 265,70 L 264,70 L 262,70 L 260,70 L 259,70 L 257,70 L 255,70 L 254,70 L 252,70 L 250,71 L 249,71 L 247,71 L 246,71 L 244,71 L 242,72 L 241,72 L 239,72 L 237,72 L 236,73 L 234,73 L 233,73 L 231,74 L 229,74 L 228,75 L 226,75 L 225,75 L 223,76 L 222,76 L 220,77 L 219,77 L 217,78 L 216,78 L 214,79 L 213,79 L 211,80 L 210,81 L 208,81 L 207,82 L 205,83 L 204,83 L 202,84 L 201,85 L 199,85 L 198,86 L 197,87 L 195,88 L 194,88 L 192,89 L 191,90 L 190,91 L 188,92 L 187,93 L 186,93 L 184,94 L 183,95 L 182,96 L 180,97 L 179,98 L 178,99 L 177,100 L 175,101 L 174,102 L 173,103 L 172,104 L 171,105 L 169,106 L 168,107 L 167,108 L 166,109 L 165,110 L 164,111 L 163,112 L 162,113 L 161,114 L 159,116 L 158,117 L 157,118 L 156,119 L 155,120 L 154,121 L 153,123 L 152,124 L 151,125 L 151,126 L 150,127 L 149,129 L 148,130 L 147,131 L 146,132 L 145,134 L 144,135 L 144,136 L 143,138 L 142,139 L 141,140 L 140,141 L 140,143 L 139,144 L 138,145 L 137,147 L 137,148 L 136,149 L 135,151 L 135,152 L 134,153 L 133,155 L 133,156 L 132,157 L 132,159 L 131,160 L 131,162 L 130,163 L 130,164 L 129,166 L 129,167 L 128,168 L 128,170 L 127,171 L 127,173 L 126,174 L 126,175 L 125,177 L 125,178 L 125,180 L 124,181 L 124,182 L 124,184 L 123,185 L 123,187 L 123,188 L 123,190 L 122,191 L 122,192 L 122,194 L 122,195 L 121,197 L 121,198 L 121,199 L 121,201 L 121,202 L 121,204 L 121,205 L 120,206 L 120,208 L 120,209 L 120,210 L 120,212 L 120,213 L 120,215 L 120,216 L 120,217 L 120,219 L 120,220 L 120,221 L 120,223 L 120,224 L 121,226 L 121,227 L 121,228 L 121,230 L 121,231 L 121,232 L 121,234 L 121,235 L 122,236 L 122,237 L 122,239 L 122,240 L 123,241 L 123,243 L 123,244 L 123,245 L 124,246 L 124,248 L 124,249 L 124,250 L 125,251 L 125,253 L 125,254 L 126,255 L 126,256 L 127,257 L 127,259 L 127,260 L 128,261 L 128,262 L 129,263 L 129,265 L 130,266 L 130,267 L 130,268 L 131,269 L 131,270 L 132,271 L 132,272 L 133,273 L 133,275 L 134,276 L 135,277 L 135,278 L 136,279 L 136,280 L 137,281 L 137,282 L 138,283 L 139,284 L 139,285 L 140,286 L 140,287 L 141,288 L 142,289 L 142,290 L 143,291 L 144,292 L 145,293 L 146,294 L 146,295 L 147,296 L 148,297 L 148,298 L 149,299 L 150,299 L 151,300 L 151,301 L 152,302 L 153,303 L 154,303 L 154,304 L 155,305 L 156,306 L 157,306 L 157,307 L 158,308 L 159,308 L 160,309 L 161,310 L 161,311 L 162,311 L 163,312 L 164,312 L 165,313 L 165,314 L 166,314 L 167,315 L 168,316 L 169,316 L 169,317 L 170,317 L 171,318 L 172,318 L 173,319 L 174,319 L 175,320 L 176,321 L 177,321 L 178,322 L 179,322 L 180,323 L 181,323 L 182,324 L 183,324 L 184,325 L 185,325 L 186,325 L 187,326 L 188,326 L 189,327 L 190,327 L 191,327 L 192,328 L 193,328 L 194,328 L 195,329 L 196,329 L 197,329 L 198,329 L 199,329 L 200,330 L 201,330 L 202,330 L 203,330 L 204,330 L 205,331 L 206,331 L 207,331 L 208,331 L 209,331 L 210,331 L 211,331 L 212,331 L 213,331 L 214,331 L 215,331 L 216,331 L 217,331 L 218,331 L 219,331 L 220,331 L 221,331 L 222,331 L 223,331 L 224,331 L 225,331 L 226,331 L 227,331 L 228,330 L 229,330 L 230,330 L 231,330 L 232,330 L 233,329 L 234,329 L 235,329 L 236,329 L 237,328 L 238,328 L 239,328 L 240,327 L 241,327 L 242,327 L 242,326 L 243,326 L 244,326 L 245,325 L 246,325 L 247,325 L 247,324 L 248,324 L 249,324 L 249,323 L 250,323 L 251,323 L 251,322 L 252,322 L 253,321 L 254,321 L 254,320 L 255,320 L 256,320 L 256,319 L 257,319 L 257,318 L 258,318 L 259,318 L 259,317 L 260,317 L 260,316 L 261,316 L 261,315 L 262,315 L 262,314 L 263,314 L 264,313 L 265,312 L 266,312 L 266,311 L 267,311 L 267,310 L 268,310 L 268,309 L 269,308 L 269,307 L 270,307 L 270,306 L 271,306 L 271,305 L 272,305 L 272,304 L 273,303 L 274,302 L 274,301 L 275,300 L 275,299 L 276,299 L 276,298 L 277,298 L 277,297 L 278,296 L 278,295 L 278,294 L 279,294 L 279,293 L 280,292 L 280,291 L 280,290 L 281,290 L 281,289 L 281,288 L 282,287 L 282,286 L 282,285 L 283,284 L 283,283 L 283,282 L 284,281 L 284,280 L 284,279 L 284,278 L 285,277 L 285,276 L 285,275 L 285,274 L 285,273 L 285,272 L 286,271 L 286,270 L 286,269 L 286,268 L 286,267 L 286,266 L 286,265 L 286,264 L 286,263 L 286,262 L 286,261 L 286,260 L 286,259 L 286,258 L 286,257 L 285,257 L 285,256 L 285,255 L 285,254 L 285,253 L 285,252 L 285,251 L 284,251 L 284,250 L 284,249 L 284,248 L 283,248 L 283,247 L 283,246 L 283,245 L 282,244 L 282,243 L 282,242 L 281,242 L 281,241 L 281,240 L 280,240 L 280,239 L 280,238 L 279,238 L 279,237 L 279,236 L 278,236 L 278,235 L 277,235 L 277,234 L 277,233 L 276,233 L 276,232 L 275,232 L 275,231 L 274,230 L 273,229 L 273,228 L 272,228 L 271,227 L 271,226 L 270,226 L 269,225 L 268,225 L 268,224 L 267,224 L 267,223 L 266,223 L 265,222 L 264,222 L 264,221 L 263,221 L 262,221 L 262,220 L 261,220 L 260,220 L 260,219 L 259,219 L 258,219 L 257,219 L 257,218 L 256,218 L 255,218 L 254,218 L 253,218 L 252,217 L 251,217 L 250,217 L 249,217 L 248,217 L 247,217 L 246,217 L 245,217 L 244,217 L 244,218 L 243,218 L 242,218 L 241,218 L 240,218 L 240,219 L 239,219 L 238,219 L 237,219 L 237,220 L 236,220 L 235,220 L 235,221 L 234,221 L 233,222 L 232,222 L 232,223 L 231,223 L 231,224 L 230,224 L 230,225 L 229,225 L 229,226 L 228,226 L 228,227 L 227,227 L 227,228 L 226,228 L 226,229 L 226,230 L 225,230 L 225,231 L 225,232 L 224,232 L 224,233 L 224,234 L 223,234 L 223,235 L 223,236 L 223,237 L 223,238 L 222,238 L 222,239 L 222,240 L 222,241 L 222,242 L 222,243 L 222,244 L 222,245 L 223,246 L 223,247 L 223,248 L 223,249 L 224,249 L 224,250 L 224,251 L 225,251 L 225,252 L 225,253 L 226,253 L 226,254 L 227,254 L 227,255 L 228,255 L 228,256 L 229,256 L 229,257 L 230,257 L 231,257 L 231,258 L 232,258 L 233,258 L 234,258 L 234,259 L 235,259 L 236,259 L 237,259 L 238,258 L 239,258 L 240,258 L 240,257 L 241,257 L 242,257 L 242,256 L 243,256 L 243,255 L 243,254 L 244,254 L 244,253 L 244,252 L 245,252 L 245,251 L 245,250 L 245,249 L 245,248 L 244,248 L 244,247 L 244,246 L 243,246 L 243,245 L 242,245 L 242,244 L 241,244 L 240,244 L 239,244 L 238,244 L 238,245 L 237,245 L 237,246 L 237,247 L 237,248 L 237,249 L 238,249 L 239,249 L 240,249 L 240,248 L 239,248 L 239,247 L 239,248"
       id="path30"
       style="stroke:#00ffff;stroke-width:23;stroke-linecap:round;stroke-linejoin:round;stroke-miterlimit:4;stroke-dasharray:none;stroke-opacity:1" />
  </g>
  <g
     style="fill:none;stroke:#00b000;stroke-width:3;stroke-linecap:round;stroke-linejoin:round;stroke-miterlimit:4;stroke-dasharray:none;stroke-opacity:1"
     id="g24"
     transform="translate(-63.311686,-38.961038)">
    <path
       d="M 423,248 L 423,246 L 423,244 L 423,242 L 423,240 L 423,238 L 422,236 L 422,234 L 422,232 L 422,230 L 421,228 L 421,226 L 420,224 L 420,222 L 419,220 L 419,218 L 418,216 L 418,214 L 417,213 L 416,211 L 416,209 L 415,207 L 414,205 L 414,203 L 413,202 L 412,200 L 411,198 L 410,196 L 409,195 L 408,193 L 407,191 L 406,190 L 405,188 L 404,186 L 403,185 L 402,183 L 401,182 L 399,180 L 398,179 L 397,177 L 396,176 L 394,174 L 393,173 L 392,171 L 391,170 L 389,169 L 388,168 L 386,166 L 385,165 L 384,164 L 382,163 L 381,162 L 379,160 L 378,159 L 376,158 L 375,157 L 373,156 L 372,155 L 370,154 L 369,153 L 367,152 L 366,152 L 364,151 L 362,150 L 361,149 L 359,148 L 358,148 L 356,147 L 354,146 L 353,146 L 351,145 L 349,144 L 348,144 L 346,143 L 345,143 L 343,142 L 341,142 L 340,141 L 338,141 L 336,141 L 335,140 L 333,140 L 332,140 L 330,140 L 328,139 L 327,139 L 325,139 L 324,139 L 322,139 L 320,138 L 319,138 L 317,138 L 316,138 L 314,138 L 313,138 L 311,138 L 309,138 L 308,138 L 306,138 L 305,138 L 303,139 L 302,139 L 300,139 L 299,139 L 297,139 L 296,139 L 295,140 L 293,140 L 292,140 L 290,141 L 289,141 L 288,141 L 286,141 L 285,142 L 284,142 L 282,143 L 281,143 L 280,143 L 278,144 L 277,144 L 276,145 L 275,145 L 273,146 L 272,146 L 271,147 L 270,147 L 268,148 L 267,148 L 266,149 L 265,149 L 264,150 L 263,150 L 262,151 L 261,152 L 260,152 L 259,153 L 257,153 L 256,154 L 255,155 L 254,155 L 253,156 L 253,157 L 252,157 L 251,158 L 250,159 L 249,159 L 248,160 L 247,161 L 246,161 L 245,162 L 244,163 L 244,164 L 243,164 L 242,165 L 241,166 L 240,166 L 240,167 L 239,168 L 238,169 L 237,170 L 236,171 L 235,172 L 234,173 L 234,174 L 233,175 L 232,175 L 232,176 L 231,177 L 231,178 L 230,178 L 229,179 L 229,180 L 228,181 L 227,182 L 227,183 L 226,184 L 225,185 L 225,186 L 225,187 L 224,187 L 224,188 L 223,189 L 223,190 L 222,191 L 222,192 L 221,193 L 221,194 L 221,195 L 220,195 L 220,196 L 220,197 L 219,197 L 219,198 L 219,199 L 218,200 L 218,201 L 218,202 L 217,203 L 217,204 L 217,205 L 217,206 L 216,207 L 216,208 L 216,209 L 216,210 L 216,211 L 215,211 L 215,212 L 215,213 L 215,214 L 215,215 L 215,216 L 215,217 L 215,218 L 215,219 L 215,220 L 214,220 L 214,221 L 214,222 L 214,223 L 215,223 L 215,224 L 215,225 L 215,226 L 215,227 L 215,228 L 215,229 L 215,230 L 215,231 L 215,232 L 216,232 L 216,233 L 216,234 L 216,235 L 216,236 L 217,236 L 217,237 L 217,238 L 218,239 L 218,240 L 218,241 L 219,241 L 219,242 L 219,243 L 220,243 L 220,244 L 221,245 L 221,246 L 222,246 L 222,247 L 223,247 L 223,248 L 224,248 L 224,249 L 225,249 L 225,250 L 226,250 L 226,251 L 227,251 L 228,252 L 229,252 L 230,253 L 231,253 L 232,253 L 233,253 L 234,253 L 235,253 L 236,253 L 237,253 L 238,253 L 238,252 L 239,252 L 239,251 L 240,251 L 240,250 L 240,249 L 240,248 L 239,248"
       id="path26"
       style="stroke:#00b000;stroke-width:23;stroke-linecap:round;stroke-linejoin:round;stroke-miterlimit:4;stroke-dasharray:none;stroke-opacity:1" />
  </g>
  <path
     sodipodi:type="arc"
     style="fill:#ff9600;fill-opacity:1;stroke:#ff9600;stroke-width:21;stroke-linecap:round;stroke-linejoin:round;stroke-miterlimit:4;stroke-dasharray:none;stroke-dashoffset:0;stroke-opacity:1"
     id="path2400"
     sodipodi:cx="397.40259"
     sodipodi:cy="313.14935"
     sodipodi:rx="5.8441558"
     sodipodi:ry="5.3571424"
     d="M 403.24674,313.14935 A 5.8441558,5.3571424 0 1 1 391.55843,313.14935 A 5.8441558,5.3571424 0 1 1 403.24674,313.14935 z"
     transform="matrix(0.674686,0,0,0.7360211,-90.271325,-22.620905)" />
</svg>
